<?xml version="1.0" encoding="UTF-8"?>
<svg width="120px" height="120px" viewBox="0 0 120 120" version="1.1" xmlns="http://www.w3.org/2000/svg" xmlns:xlink="http://www.w3.org/1999/xlink">
    <title>favicon</title>
    <g id="Symbols" stroke="none" stroke-width="1" fill="none" fill-rule="evenodd">
        <g id="favicon">
            <rect id="Rectangle" x="0" y="0" width="120" height="120"></rect>
            <text id="FRONT-END-DEV." font-family="Neoneon" font-size="18" font-weight="normal" fill="#FF0000">
                <tspan x="65" y="47">FRONT</tspan>
                <tspan x="65" y="70">END</tspan>
                <tspan x="65" y="93">DEV.</tspan>
            </text>
            <g transform="translate(3.000000, 3.000000)" stroke="#FF0000" stroke-linecap="round">
                <path d="M29,65 C29.4848485,64 30.0909091,63.25 30.8181818,62.75 C31.5454545,62.25 32.2727273,62 33,62" id="ring_finger_nail"></path>
                <g id="pinky_finger" transform="translate(0.000000, 21.000000)">
                    <path d="M3.69323859,10.5604003 C4.55582713,9.93108962 5.22068685,9.54938841 5.68781774,9.41529664 C6.15494864,9.28120487 6.81980835,9.15397113 7.68239689,9.03359543" id="Line-19"></path>
                    <path d="M16.2590872,40.1422445 C18.0748936,38.8280097 19.471099,38.0009904 20.4477035,37.6611866 C21.4243079,37.3213827 22.9534853,37.1305321 25.0352355,37.0886347" id="Line-16"></path>
                    <path d="M11.4720973,27.1644031 C13.3316305,25.8081694 14.5948639,24.9811501 15.2617977,24.6833452 C15.9287314,24.3855404 16.6600771,24.3219235 17.4558347,24.4924946" id="Line-17"></path>
                    <path d="M7.88185481,18.7669764 C8.91304222,17.8561801 9.68018805,17.2563639 10.1832923,16.9675278 C10.6863965,16.6786917 11.2489701,16.5151055 11.8710131,16.4767691" id="Line-18"></path>
                    <path d="M20.6437396,89 C20.9722716,74.735736 20.4903606,65.8238782 19.1980065,62.2644268 C16.2616705,54.1770572 14.9684387,49.5552664 13.8281406,44.0614833 C13.2039233,41.0540995 12.8899059,36.9266255 11.7628075,33.8223276 C8.04520805,23.5831719 2.67534215,15.6193841 0.610009114,8.41405231 C-0.323324183,5.15793043 -0.185635314,2.75615317 1.02307572,1.20872051" id="Line-15"></path>
                    <path d="M1.89811735,0.445318084 C3.89269651,-0.445318084 5.28890191,6.52811138e-14 6.08673357,1.78127234 C7.39457868,4.70122203 9.75468191,9.79368509 12.8683027,14.7591137 C14.0650502,16.6676197 16.6333218,20.9368302 18.4531243,22.7748392 C24.4819553,28.8639864 26.4609066,36.961418 29.6227676,44.1501072 C30.2267602,45.5233225 30.897617,46.2862551 32.0162625,47.2037169 C33.8778698,48.7305218 35.8724489,48.2215868 38,45.6769121" id="Line-14"></path>
                </g>
                <g id="ring_midlle_top" transform="translate(20.000000, 35.000000)">
                    <path d="M11.2941176,5.62250372 C11.5630252,3.18714429 12.907563,1.48239269 15.3277311,0.508248923 C17.7478992,-0.465894846 20.6386555,-0.0397069471 24,1.78681262" id="Line-13"></path>
                    <path d="M0.00627735843,10 C-0.0899754709,7.84893305 0.920679237,6.05689646 3.03824148,4.62389023 C5.15580373,3.19088401 7.90776245,3.60443091 11.2941176,5.86453095" id="Line-13"></path>
                </g>
                <g id="index_finger_rock" transform="translate(45.000000, 0.000000)">
                    <path d="M11.4273348,14.3561722 C9.87151035,13.653021 8.68937227,13.2160657 7.88092057,13.0453062 C7.07246888,12.8745467 5.89033079,12.8121245 4.33450632,12.8580396" id="Line-11" stroke-linejoin="round"></path>
                    <path d="M11.6988578,25.9251112 C10.6659639,25.2981001 9.62727144,24.9179256 8.58278043,24.7845878 C7.53828941,24.65125 6.47410107,24.5166335 5.39021541,24.3807383" id="Line-11" stroke-linejoin="round" transform="translate(8.544537, 25.152925) rotate(-7.000000) translate(-8.544537, -25.152925) "></path>
                    <path d="M0,35.9272727 C1.70753279,24.6358442 2.56129919,15.9106494 2.56129919,9.75168831 C2.56129919,3.59272727 4.07180896,0.342164502 7.09282852,0" id="Line-10"></path>
                    <path d="M13.988634,52 C14.0738582,30.0951642 13.6798122,15.9763763 12.8064959,9.64363636 C11.9331796,3.31089643 10.0286238,0.0963509796 7.09282852,0" id="Line-9"></path>
                </g>
                <g id="hand_down_right" transform="translate(20.000000, 74.000000)">
                    <path d="M0,38.3089489 C9.75232086,38.9610487 17.5935907,39.1516405 23.5238095,38.8807243 C29.4540284,38.6098081 32.737979,37.9109715 33.3756614,36.7842146" id="нижний-край-кисти"></path>
                    <path d="M33.5767196,35.4500721 C33.5767196,35.1683278 33.5767196,34.2070822 33.5767196,32.5663356 C33.5767196,30.9255889 33.5767196,28.964427 33.5767196,26.68285 C33.6660788,20.5783885 34.202234,16.258308 35.1851852,13.7226086 C36.1681364,11.1869092 37.106408,8.51862416 38,5.71775357" id="правй-нижний-край-кисти"></path>
                    <path d="M32.7724868,8.76722214 C29.3616852,8.8141183 26.814948,8.30587354 25.1322751,7.24248786 C23.931273,6.48349989 21.9102607,5.11999133 20.3068783,3.04946857 C19.8781794,2.49586962 19.3420242,1.47938009 18.6984127,0" id="Line-23"></path>
                    <path d="M4.42328042,16.2003018 C6.90767783,16.3803849 8.71720164,16.4439155 9.85185185,16.3908936 C13.8872694,16.2023195 17.5228346,16.00971 19.5026455,16.00971 C22.3174603,16.00971 25.4673721,16.0732406 28.952381,16.2003018" id="Line-22"></path>
                </g>
                <g id="thumb_rock" transform="translate(26.000000, 42.000000)">
                    <path d="M0.90851735,0.185831458 C-0.706624606,3.43605919 -0.168243954,6.4362694 2.52365931,9.18646209 C4.05842636,10.7544624 7.41427283,12.1467802 11.0031546,12.9367249 C12.3174593,13.226015 12.6964411,13.3117511 14.2334385,13.3117511 C14.637224,13.3117511 17.9319121,16.8779432 18.6750789,19.3121715 C18.9991613,20.3736972 18.9318637,21.9363067 18.4731861,24" id="внутренний-край-большого-пальца"></path>
                    <path d="M2.72555205,7.49884384 C5.40600089,7.00707977 7.16022451,6.44454036 7.98822292,5.8112256 C8.81622134,5.17791084 9.35011548,3.99032763 9.58990536,2.24847598" id="ноготь-большого-пальца"></path>
                    <path d="M32,11.0615935 C30.2700728,10.524199 28.789526,9.39912022 27.5583596,7.68635698 C27.0198954,6.93726102 26.8790851,6.8363477 26.3470032,6.18625188 C24.4456411,3.86317452 22.9907692,1.96349216 21.0977918,0.185831458 C20.3717755,-0.495957271 13.716263,0.898866089 9.79179811,1.15277903 C7.75820849,1.28435232 4.79711491,0.962036458 0.90851735,0.185831458" id="внешний-край-большого-пальца"></path>
                </g>
                <g id="middle_finger_shaka" transform="translate(32.000000, 44.000000)">
                    <line x1="0" y1="0" x2="1.28571429" y2="3.375" id="нижний-фрагмент-среднего-пальца"></line>
                    <line x1="2.14285714" y1="5.25" x2="3" y2="9" id="верхний-фрагмент-среднего-пальца"></line>
                </g>
                <path d="M59.4545455,53 C59.9393939,57.8717949 60.1010101,61.974359 59.9393939,65.3076923 C59.7777778,68.6410256 59.1313131,72.8717949 58,78" id="rihgt_part_rock" stroke-linejoin="round"></path>
                <g id="midlle_finger_nail" transform="translate(35.000000, 55.000000)">
                    <path d="M0,0 C0.271372471,2.91639902 0.480674797,4.84953904 0.627906977,5.79942007 C0.898289037,7.54381311 1.21190924,8.27331251 1.46511628,8.99910011 C1.8086633,9.98383643 3.85643972,11.0388408 6.48837209,10.9989001 C7.08327704,10.9898722 7.92048635,10.7232322 9,10.1989801" id="средний-палец-контур"></path>
                    <path d="M8.59090909,4.76565835 C6.87369791,3.89652785 5.51006155,3.52986119 4.5,3.66565835 C3.48993845,3.80145551 2.33084755,4.47367774 1.02272727,5.68232502" id="Средний-палец-ноготь"></path>
                </g>
            </g>
        </g>
    </g>
</svg>