<?xml version="1.0" encoding="UTF-8"?>
<svg width="668px" height="534px" viewBox="0 0 668 534" version="1.1" xmlns="http://www.w3.org/2000/svg" xmlns:xlink="http://www.w3.org/1999/xlink">
    <title>mail-alt-svgrepo-com</title>
    <g id="Symbols" stroke="none" stroke-width="1" fill="none" fill-rule="evenodd" stroke-linecap="round" stroke-linejoin="round">
        <g id="mail-alt-svgrepo-com" transform="translate(34.000000, 34.000000)" stroke="#FF0000" stroke-width="66.6666667">
            <path d="M33.3333333,433.333333 L200,233.333333 M566.666667,433.333333 L400,233.333333 M0,100 L240.833333,260.553333 C262.216667,274.81 272.906667,281.94 284.463333,284.706667 C294.676667,287.156667 305.323333,287.156667 315.536667,284.706667 C327.093333,281.94 337.783333,274.81 359.166667,260.553333 L600,100 M106.666667,466.666667 L493.333333,466.666667 C530.67,466.666667 549.34,466.666667 563.6,459.4 C576.143333,453.01 586.343333,442.81 592.733333,430.266667 C600,416.006667 600,397.336667 600,360 L600,106.666667 C600,69.33 600,50.6613333 592.733333,36.4006667 C586.343333,23.8563333 576.143333,13.6576667 563.6,7.26633333 C549.34,0 530.67,0 493.333333,0 L106.666667,0 C69.33,0 50.6613333,0 36.4006667,7.26633333 C23.8563333,13.6576667 13.6576667,23.8563333 7.26633333,36.4006667 C0,50.6613333 0,69.3296667 0,106.666667 L0,360 C0,397.336667 0,416.006667 7.26633333,430.266667 C13.6576667,442.81 23.8563333,453.01 36.4006667,459.4 C50.6613333,466.666667 69.3296667,466.666667 106.666667,466.666667 Z" id="Shape"></path>
        </g>
    </g>
</svg>