<?xml version="1.0" encoding="UTF-8"?>
<svg width="330px" height="360px" viewBox="0 0 330 360" version="1.1" xmlns="http://www.w3.org/2000/svg" xmlns:xlink="http://www.w3.org/1999/xlink">
    <title>hand_neon</title>
    <g id="Symbols" stroke="none" stroke-width="1" fill="none" fill-rule="evenodd">
        <g id="hand_neon">
            <rect id="Rectangle" x="0" y="0" width="330" height="360"></rect>
            <g id="always_on" transform="translate(50.741810, 89.333333)" stroke="#FF0000" stroke-linecap="round">
                <path d="M109.25819,101.666667 C105.060563,99.2963108 101.727229,98.2963108 99.2581901,98.6666667 C96.7891508,99.0370226 93.9558174,100.870356 90.7581901,104.166667" id="Средний-палец-ноготь"></path>
                <path d="M74.2581901,113.666667 C75.5915234,111 77.2581901,109 79.2581901,107.666667 C81.2581901,106.333333 83.2581901,105.666667 85.2581901,105.666667" id="ring_finger_nail"></path>
                <path d="M9.2581901,27.6666667 C11.4205223,26.017967 13.087189,25.017967 14.2581901,24.6666667 C15.4291912,24.3153663 17.0958579,23.982033 19.2581901,23.6666667" id="Line-19"></path>
                <path d="M40.7581901,105.166667 C45.3100434,101.723568 48.8100434,99.5569018 51.2581901,98.6666667 C53.7063368,97.7764315 57.5396701,97.2764315 62.7581901,97.1666667" id="Line-16"></path>
                <path d="M28.7581901,71.1666667 C33.4196576,67.6135374 36.5863243,65.4468707 38.2581901,64.6666667 C39.9300559,63.8864626 41.7633893,63.7197959 43.7581901,64.1666667" id="Line-17"></path>
                <path d="M19.7581901,49.1666667 C22.343165,46.7805169 24.2662419,45.2090883 25.5274209,44.452381 C26.7885998,43.6956736 28.1988562,43.2671022 29.7581901,43.1666667" id="Line-18"></path>
                <path d="M51.7496124,233.166667 C52.5731746,195.796432 51.3651227,172.4487 48.1254565,163.12347 C40.7646658,141.935773 37.5227995,129.827374 34.6643064,115.434485 C33.099522,107.55559 32.312345,96.7422266 29.4869409,88.6094312 C20.1676831,61.7843772 6.70653293,40.9204464 1.52916748,22.0435565 C-0.810507277,13.513005 -0.46534958,7.2207084 2.56464057,3.16666667" id="Line-15"></path>
                <path d="M4.7581901,1.16666667 C9.7581901,-1.16666667 13.2581901,1.71418435e-13 15.2581901,4.66666667 C18.536689,12.3164974 24.4529827,25.6579877 32.2581901,38.6666667 C35.2581901,43.6666667 41.6963192,54.8513585 46.2581901,59.6666667 C61.3712303,75.6193202 66.3320545,96.8333778 74.2581901,115.666667 C75.7722756,119.264285 77.4539756,121.263054 80.2581901,123.666667 C84.9248568,127.666667 89.9248568,126.333333 95.2581901,119.666667" id="Line-14"></path>
                <path d="M51.2737527,61.6498295 C51.0351259,55.7613983 53.5407074,50.8557937 58.7904971,46.9330155 C64.0402868,43.0102373 70.8628512,44.1422999 79.2581901,50.3292033" id="Line-13"></path>
                <path d="M51.7581901,237.166667 C76.0106722,238.87739 95.5106722,239.37739 110.25819,238.666667 C125.005708,237.955943 133.172375,236.12261 134.75819,233.166667" id="нижний-край-кисти"></path>
                <path d="M79.2581901,49.6666667 C79.9248568,43 83.2581901,38.3333333 89.2581901,35.6666667 C95.2581901,33 102.424857,34.1666667 110.75819,39.1666667" id="Line-13"></path>
                <path d="M133.25819,159.666667 C124.776065,159.789694 118.442732,158.456361 114.25819,155.666667 C111.271488,153.675532 106.245549,150.098492 102.25819,144.666667 C101.192084,143.214351 99.8587503,140.547684 98.2581901,136.666667" id="Line-23"></path>
                <path d="M135.25819,229.666667 C135.25819,228.927536 135.25819,226.405797 135.25819,222.101449 C135.25819,217.797101 135.25819,212.652174 135.25819,206.666667 C135.480412,190.652174 136.813746,179.318841 139.25819,172.666667 C141.702635,166.014493 144.035968,159.014493 146.25819,151.666667" id="правй-нижний-край-кисти"></path>
                <path d="M62.7581901,179.166667 C68.9364942,179.639098 73.4364942,179.805765 76.2581901,179.666667 C86.2936363,179.17196 95.3347129,178.666667 100.25819,178.666667 C107.25819,178.666667 115.091523,178.833333 123.75819,179.166667" id="Line-22"></path>
                <path d="M88.2581901,88.6694166 C88.921545,96.6232321 89.4331729,101.895432 89.7930738,104.486017 C90.4540077,109.243452 91.2206349,111.232996 91.8395854,113.212417 C92.6793671,115.898061 97.6850427,118.775346 104.118655,118.666417 C105.572867,118.641795 107.619379,117.914595 110.25819,116.484817" id="средний-палец-контур"></path>
            </g>
            <g id="index_finger_rock" transform="translate(165.500000, 31.500000)" stroke="#FF0000" stroke-linecap="round">
                <path d="M29,37.9610323 C25.0516682,36.1017384 22.0516682,34.9463276 20,34.4948001 C17.9483318,34.0432726 14.9483318,33.8782139 11,33.999624" id="Line-11" stroke-linejoin="round"></path>
                <path d="M29.6841079,68.5101376 C27.069297,66.8664674 24.4365829,65.8751747 21.7859657,65.5362596 C19.1353484,65.1973445 16.4347292,64.8553038 13.6841079,64.5101376" id="Line-11" stroke-linejoin="round" transform="translate(21.684108, 66.510138) rotate(-7.000000) translate(-21.684108, -66.510138) "></path>
                <path d="M0,95 C4.33333333,65.1428571 6.5,42.0714286 6.5,25.7857143 C6.5,9.5 10.3333333,0.904761905 18,0" id="Line-10"></path>
                <path d="M35.5,137.5 C35.7162799,79.5785591 34.7162799,42.2452258 32.5,25.5 C30.2837201,8.75477422 25.4503868,0.254774225 18,5.68434189e-14" id="Line-9"></path>
            </g>
            <g id="thumb_rock" transform="translate(117.750000, 141.504484)" stroke="#FF0000" stroke-linecap="round">
                <path d="M2.25,0.495515833 C-1.75,9.1621825 -0.416666667,17.1621825 6.25,24.4955158 C10.0509465,28.676557 18.36191,32.3891444 27.25,34.4955158 C30.5049579,35.2669021 31.4435299,35.4955158 35.25,35.4955158 C36.25,35.4955158 44.4095011,45.004695 46.25,51.4955158 C47.0526103,54.3260525 46.8859436,58.4927192 45.75,63.9955158" id="внутренний-край-большого-пальца"></path>
                <path d="M6.75,19.9955158 C13.3882991,18.6842369 17.7327435,17.1842369 19.7833333,15.4955158 C21.8339232,13.8067948 23.1561454,10.6401281 23.75,5.99551583" id="ноготь-большого-пальца"></path>
                <path d="M79.25,29.4955158 C74.9657272,28.0625645 71.2990605,25.0625645 68.25,20.4955158 C66.9164596,18.4980666 66.5677342,18.2289832 65.25,16.4955158 C60.5411581,10.3010769 56.9380768,5.23561223 52.25,0.495515833 C50.4519753,-1.32246006 33.9691827,2.39680829 24.25,3.07386204 C19.2136882,3.42469954 11.8803549,2.56525081 2.25,0.495515833" id="внешний-край-большого-пальца"></path>
            </g>
            <g id="middle_finger_shaka" transform="translate(131.000000, 147.000000)" stroke="#000000" stroke-linecap="round" stroke-opacity="0.297549374">
                <line x1="0" y1="0" x2="3" y2="9" id="нижний-фрагмент-среднего-пальца"></line>
                <line x1="5" y1="14" x2="7" y2="24" id="верхний-фрагмент-среднего-пальца"></line>
            </g>
            <g id="thumb_shaka" transform="translate(245.339115, 190.611738) rotate(-10.000000) translate(-245.339115, -190.611738) translate(192.450231, 122.228223)" stroke="#000000" stroke-linecap="round" stroke-opacity="0.297549374">
                <path d="M104.237195,106.196973 C96.6718851,102.308361 84.9654089,95.8041201 69.1177669,86.6842505 C56.5996143,79.4804081 46.596702,63.8302395 19.6430888,56.3247526 C15.4997198,55.1709926 8.36442199,51.4617328 -1.76280453,45.1969733" id="шака-внешний-контур-большого-пальца" transform="translate(51.237195, 75.696973) scale(-1, -1) rotate(-63.000000) translate(-51.237195, -75.696973) "></path>
                <path d="M40.6367563,1.16785545 C39.5134939,1.36798777 38.4733023,2.04992742 37.5161817,3.21367441 C33.0659977,8.62457866 34.162453,18.8625445 44.1446457,30.3281451 C48.8490258,35.7316215 71.6784066,47.4451546 77.4590103,52.092535 C81.5671426,55.3953136 86.1346365,61.4319998 84.7398327,68.584643 C84.2639565,71.0249668 83.3633135,74.3100009 82.0379038,78.4397455" id="шака-внутренний-контур-большогго-пальца" transform="translate(60.009094, 39.803800) scale(-1, -1) rotate(-63.000000) translate(-60.009094, -39.803800) "></path>
                <path d="M83.1165789,39.6201537 C82.971471,42.5731247 84.9692905,44.8125666 89.1100375,46.3384794 C93.2507845,47.8643923 97.2505084,48.6249503 101.109209,48.6201537" id="шака-ноготь-большого-пальца" transform="translate(92.109209, 44.120154) scale(-1, -1) rotate(-63.000000) translate(-92.109209, -44.120154) "></path>
                <path d="M63.3617525,52.3251557 C62.7701499,49.4534414 62.8250324,47.2102581 63.5263999,45.5956058 C64.2277675,43.9809535 66.062843,41.8731727 69.0316266,39.2722632" id="шака-складка-пбольшого-пальца" transform="translate(65.993672, 45.798709) scale(-1, -1) rotate(-63.000000) translate(-65.993672, -45.798709) "></path>
                <path d="M33.8318369,83.1054544 C35.1238258,80.6792804 35.7571665,77.3287444 35.7318589,73.0538465 C35.7065513,68.7789485 35.0398847,62.4456152 33.7318589,54.0538465" id="Line-2"></path>
            </g>
            <path d="M201,173 C202,185.666667 202.333333,196.333333 202,205 C201.666667,213.666667 200.333333,224.666667 198,238" id="rihgt_part_rock" stroke="#FF0000" stroke-linecap="round" stroke-linejoin="round"></path>
            <g id="index_finger_shaka" transform="translate(158.000000, 126.146110)" stroke="#000000" stroke-linecap="round" stroke-opacity="0.297549374">
                <line x1="27" y1="16.8538901" x2="28" y2="31.8538901" id="Line"></line>
                <path d="M40,40.8538901 C38.7411375,36.5403543 38.0744708,33.207021 38,30.8538901 C37.753805,23.0746151 40,17.8538901 38,12.8538901 C36.0364141,7.94492531 29.9967499,6.25161501 28,4.85389007 C18,-2.14610993 14.5503837,-0.42130178 8,2.85389007 C2.66666667,5.52055674 0,9.18722341 0,13.8538901" id="Line"></path>
                <path d="M28,39.8538901 C28.2141703,50.9852815 28.2141703,58.3186149 28,61.8538901 C27.6686239,67.3238635 26.7980459,70.9157387 26,72.8538901 C23.2141514,79.6196611 12.8047253,77.0570403 11,75.8538901 C8,73.8538901 9.45593937,70.2916226 8,63.8538901 C6.78920396,58.5001087 4.52353759,47.2955136 2,29.8538901 C1.70287159,27.8002643 1.36953825,24.1335976 1,18.8538901" id="Line"></path>
                <path d="M11.4583297,68.193318 C14.7752461,65.6719482 17.2891362,64.2254722 19,63.8538901 C20.7108638,63.4823079 23.1969737,63.8428349 26.4583297,64.9354712" id="Line-29"></path>
            </g>
            <g id="tag" transform="translate(118.500000, 80.000000) rotate(-18.000000) translate(-118.500000, -80.000000) translate(84.000000, 48.000000)" fill="#FFE557" fill-rule="nonzero" font-family="Neoneon" font-size="50" font-weight="normal">
                <g id="&lt;/&gt;">
                    <text>
                        <tspan x="0" y="51">&lt;/&gt;</tspan>
                    </text>
                </g>
            </g>
            <g id="JS" transform="translate(239.413613, 104.834249) rotate(13.000000) translate(-239.413613, -104.834249) translate(214.913613, 72.834249)" fill="#FFE557" fill-rule="nonzero" font-family="Neoneon" font-size="50" font-weight="normal">
                <g id="tag">
                    <text id="&lt;/&gt;">
                        <tspan x="0" y="51">JS</tspan>
                    </text>
                </g>
            </g>
        </g>
    </g>
</svg>