<svg width="330" height="360" xmlns="http://www.w3.org/2000/svg"><g fill="none" fill-rule="evenodd"><path d="M0 0h330v360H0z"/><path d="M125 203c1.333-2.667 3-4.667 5-6 2-1.333 4-2 6-2" stroke="red" stroke-linecap="round"/><g stroke="red" stroke-linecap="round"><path d="M60 117c2.162-1.649 3.829-2.649 5-3 1.171-.351 2.838-.685 5-1M91.5 194.5c4.552-3.443 8.052-5.61 10.5-6.5 2.448-.89 6.281-1.39 11.5-1.5M79.5 160.5c4.661-3.553 7.828-5.72 9.5-6.5 1.672-.78 3.505-.947 5.5-.5M70.5 138.5c2.585-2.386 4.508-3.958 5.77-4.714 1.26-.757 2.67-1.186 4.23-1.286"/><path d="M102.491 322.5c.824-37.37-.384-60.718-3.624-70.043-7.36-21.188-10.602-33.296-13.46-47.69-1.566-7.878-2.353-18.691-5.178-26.824-9.32-26.825-22.78-47.69-27.958-66.566-2.34-8.53-1.995-14.823 1.035-18.877M55.5 90.5c5-2.333 8.5-1.167 10.5 3.5 3.278 7.65 9.195 20.991 17 34 3 5 9.438 16.185 14 21 15.113 15.953 20.074 37.167 28 56 1.514 3.598 3.196 5.596 6 8 4.667 4 9.667 2.667 15-4"/></g><g stroke="red" stroke-linecap="round"><path d="M130 139c.667-6.667 4-11.333 10-14s13.167-1.5 21.5 3.5M102.016 150.983c-.24-5.888 2.267-10.794 7.516-14.717 5.25-3.922 12.073-2.79 20.468 3.397"/></g><g stroke="red" stroke-linecap="round"><path d="M194.5 69.461c-3.948-1.86-6.948-3.015-9-3.466-2.052-.452-5.052-.617-9-.495M195.368 99.02c-2.795-1.312-5.53-1.976-8.201-1.989A3493.04 3493.04 0 0 0 179 97" stroke-linejoin="round"/><path d="M165.5 126.5c4.333-29.857 6.5-52.929 6.5-69.214C172 41 175.833 32.405 183.5 31.5M201 169c.216-57.921-.784-95.255-3-112-2.216-16.745-7.05-25.245-14.5-25.5"/></g><g stroke="red" stroke-linecap="round"><path d="M102.5 326.5c24.252 1.71 43.752 2.21 58.5 1.5 14.748-.71 22.914-2.544 24.5-5.5M186 319v-23c.222-16.014 1.556-27.348 4-34a379.066 379.066 0 0 0 7-21M184 249c-8.482.123-14.815-1.21-19-4-2.987-1.991-8.013-5.568-12-11-1.066-1.452-2.4-4.119-4-8M113.5 268.5c6.178.472 10.678.64 13.5.5 10.035-.495 19.077-1 24-1 7 0 14.833.167 23.5.5"/></g><g stroke="red" stroke-linecap="round"><path d="M120 142c-4 8.667-2.667 16.667 4 24 3.8 4.181 12.112 7.894 21 10 3.255.771 4.194 1 8 1 1 0 9.16 9.51 11 16 .803 2.83.636 6.997-.5 12.5"/><path d="M124.5 161.5c6.638-1.311 10.983-2.811 13.033-4.5 2.05-1.689 3.373-4.855 3.967-9.5"/><path d="M197 171c-4.284-1.433-7.95-4.433-11-9-1.334-1.997-1.682-2.267-3-4-4.709-6.194-8.312-11.26-13-16-1.798-1.818-18.28 1.901-28 2.578-5.036.351-12.37-.508-22-2.578"/></g><g stroke="#000" stroke-linecap="round" stroke-opacity=".298"><path d="m131 147 3 9M136 161l2 10"/></g><g stroke="#000" stroke-linecap="round" stroke-opacity=".298"><path d="M200.32 239.868c5.93-6.098 15.573-15.391 28.928-27.88 10.549-9.865 28.44-14.855 43.497-38.437 2.315-3.625 7.949-9.364 16.9-17.217M290 154c.137-1.133-.211-2.327-1.044-3.582-3.873-5.838-13.985-7.783-27.868-1.589-6.543 2.919-24.419 21.326-30.553 25.495-4.36 2.963-11.468 5.566-17.9 2.141-2.195-1.168-5.073-2.99-8.635-5.465"/><path d="M286.683 152.622c-2.782-1.002-5.507.254-8.177 3.768-2.67 3.513-4.567 7.116-5.69 10.808M248.851 161.67c2.92.273 5.049.982 6.388 2.124 1.339 1.143 2.818 3.514 4.437 7.114M229.128 208.42c.851-2.614.893-6.024.126-10.23-.768-4.205-2.524-10.327-5.27-18.364"/></g><path d="M201 173c1 12.667 1.333 23.333 1 32-.333 8.667-1.667 19.667-4 33" stroke="red" stroke-linecap="round" stroke-linejoin="round"/><g stroke="red" stroke-linecap="round"><path d="M139 178.003c.663 7.954 1.175 13.226 1.535 15.816.66 4.758 1.427 6.747 2.046 8.727.84 2.685 5.846 5.563 12.28 5.454 1.454-.025 3.5-.752 6.139-2.182"/><path d="M160 191c-4.198-2.37-7.531-3.37-10-3-2.469.37-5.302 2.204-8.5 5.5"/></g><g stroke="#000" stroke-linecap="round" stroke-opacity=".298"><path d="m185 143 1 15M198 167c-1.259-4.314-1.926-7.647-2-10-.246-7.78 2-13 0-18-1.964-4.909-8.003-6.602-10-8-10-7-13.45-5.275-20-2-5.333 2.667-8 6.333-8 11M186 166c.214 11.131.214 18.465 0 22-.331 5.47-1.202 9.062-2 11-2.786 6.766-13.195 4.203-15 3-3-2-1.544-5.562-3-12-1.21-5.354-3.476-16.558-6-34-.297-2.054-.63-5.72-1-11"/><path d="M169.458 194.34c3.317-2.522 5.831-3.968 7.542-4.34 1.71-.372 4.197-.011 7.458 1.082"/></g><text transform="rotate(-18 228.03 -209.178)" fill="red" fill-rule="nonzero" font-family="Neoneon" font-size="50">
                        <tspan x="0" y="51">&lt;/&gt;</tspan>
                    </text><text transform="rotate(13 -187.672 1011.553)" fill="red" fill-rule="nonzero" font-family="Neoneon" font-size="50">
                        <tspan x="0" y="51">JS</tspan>
                    </text></g></svg>