<?xml version="1.0" encoding="UTF-8"?>
<svg width="35px" height="22px" viewBox="0 0 35 22" version="1.1" xmlns="http://www.w3.org/2000/svg" xmlns:xlink="http://www.w3.org/1999/xlink">
    <title>menu</title>
    <g id="Symbols" stroke="none" stroke-width="1" fill="none" fill-rule="evenodd" stroke-linecap="round">
        <g id="menu" transform="translate(1.000000, 1.454058)" stroke="#FF0000" stroke-width="2">
            <g id="Group-2" transform="translate(16.500000, 9.545942) rotate(-45.000000) translate(-16.500000, -9.545942) translate(9.000000, 3.545942)">
                <line x1="0" y1="1" x2="15" y2="1" id="Line-7"></line>
                <line x1="0" y1="11" x2="15" y2="11" id="Line-7"></line>
                <line x1="0" y1="6" x2="15" y2="6" id="Line-7"></line>
            </g>
            <g id="Group-2" transform="translate(4.000000, 9.545942) scale(-1, 1) translate(-4.000000, -9.545942) translate(0.000000, 1.545942)">
                <line x1="0" y1="0" x2="8" y2="8" id="Line-7"></line>
                <line x1="2" y1="8" x2="7.66666667" y2="15.6" id="Line-7" transform="translate(5.000000, 12.000000) scale(-1, 1) translate(-5.000000, -12.000000) "></line>
            </g>
            <g id="Group-2" transform="translate(25.000000, 1.545942)">
                <line x1="2.33333333" y1="0.363636364" x2="8" y2="8" id="Line-7"></line>
                <line x1="0" y1="8" x2="8" y2="16" id="Line-7" transform="translate(4.000000, 12.000000) scale(-1, 1) translate(-4.000000, -12.000000) "></line>
            </g>
        </g>
    </g>
</svg>