<?xml version="1.0" encoding="UTF-8"?>
<svg width="24px" height="24px" viewBox="0 0 24 24" version="1.1" xmlns="http://www.w3.org/2000/svg" xmlns:xlink="http://www.w3.org/1999/xlink">
    <title>telegram-svgrepo-com</title>
    <g id="Symbols" stroke="none" stroke-width="1" fill="none" fill-rule="evenodd">
        <g id="telegram-svgrepo-com">
            <path d="M12,2 C6.5,2 2,6.5 2,12 C2,17.5 6.5,22 12,22 C17.5,22 22,17.5 22,12 C22,6.5 17.5,2 12,2 Z M16.9,8.1 L15.2,16.3 C15.1,16.9 14.7,17 14.3,16.7 L11.7,14.7 C11.1,15.3 10.5,15.8 10.4,16 C10.2,16.1 10.1,16.3 9.9,16.3 C9.6,16.3 9.6,16.1 9.5,15.9 L8.6,12.9 L5.9,12 C5.3,11.8 5.3,11.4 6,11.1 L16.2,7.2 C16.6,7.1 17.1,7.3 16.9,8.1 Z M14.5,9 L8.8,12.6 L9.7,15.6 L9.9,13.6 L14.8,9.2 C15.1,8.9 14.9,8.9 14.5,9 Z" id="Shape" fill="#FF0000" fill-rule="nonzero"></path>
            <rect id="Rectangle" x="0" y="0" width="24" height="24"></rect>
        </g>
    </g>
</svg>